<svg width="32" height="32" viewBox="0 0 32 32" fill="none" xmlns="http://www.w3.org/2000/svg">
<path d="M30.6849 15.6962C30.6424 15.5987 29.6024 13.2925 27.2799 10.97C25.1249 8.8175 21.4224 6.25 15.9999 6.25C10.5774 6.25 6.87494 8.8175 4.71994 10.97C2.39744 13.2925 1.35744 15.595 1.31494 15.6962C1.27221 15.7923 1.25012 15.8962 1.25012 16.0012C1.25012 16.1063 1.27221 16.2102 1.31494 16.3062C1.35744 16.4025 2.39744 18.7088 4.71994 21.0312C6.87494 23.1837 10.5774 25.75 15.9999 25.75C21.4224 25.75 25.1249 23.1837 27.2799 21.0312C29.6024 18.7088 30.6424 16.4062 30.6849 16.3062C30.7277 16.2102 30.7498 16.1063 30.7498 16.0012C30.7498 15.8962 30.7277 15.7923 30.6849 15.6962ZM15.9999 24.25C12.0774 24.25 8.65244 22.8225 5.81869 20.0088C4.63083 18.8281 3.62561 17.477 2.83619 16C3.6254 14.5232 4.63064 13.1725 5.81869 11.9925C8.65244 9.1775 12.0774 7.75 15.9999 7.75C19.9224 7.75 23.3474 9.1775 26.1812 11.9925C27.3692 13.1725 28.3745 14.5232 29.1637 16C28.3674 17.5263 24.3749 24.25 15.9999 24.25ZM15.9999 10.25C14.8627 10.25 13.751 10.5872 12.8054 11.219C11.8598 11.8509 11.1228 12.7489 10.6876 13.7996C10.2524 14.8502 10.1386 16.0064 10.3604 17.1218C10.5823 18.2372 11.1299 19.2617 11.9341 20.0659C12.7382 20.87 13.7628 21.4176 14.8782 21.6395C15.9936 21.8614 17.1497 21.7475 18.2004 21.3123C19.251 20.8771 20.1491 20.1401 20.7809 19.1945C21.4127 18.2489 21.7499 17.1372 21.7499 16C21.748 14.4756 21.1415 13.0142 20.0636 11.9363C18.9857 10.8584 17.5243 10.252 15.9999 10.25ZM15.9999 20.25C15.1594 20.25 14.3377 20.0007 13.6388 19.5337C12.9399 19.0668 12.3951 18.403 12.0735 17.6264C11.7518 16.8498 11.6676 15.9953 11.8316 15.1709C11.9956 14.3464 12.4004 13.5892 12.9947 12.9948C13.5891 12.4004 14.3464 11.9956 15.1708 11.8317C15.9952 11.6677 16.8498 11.7518 17.6263 12.0735C18.4029 12.3952 19.0667 12.9399 19.5337 13.6388C20.0007 14.3377 20.2499 15.1594 20.2499 16C20.2499 17.1272 19.8022 18.2082 19.0051 19.0052C18.2081 19.8022 17.1271 20.25 15.9999 20.25Z" fill="#403F3F"/>
</svg>
